{
  "accessors": [
    {
      "bufferView": 2,
      "componentType": 5126,
      "count": 46,
      "max": [
        99.09852600097656,
        200.0,
        100.0
      ],
      "min": [
        -100.90147399902344,
        0.0,
        -100.0
      ],
      "type": "VEC3"
    },
    {
      "bufferView": 2,
      "byteOffset": 552,
      "componentType": 5126,
      "count": 46,
      "max": [
        0.99742192029953,
        0.99742192029953,
        0.99742192029953
      ],
      "min": [
        -0.99742192029953,
        -0.99742192029953,
        -0.99742192029953
      ],
      "type": "VEC3"
    },
    {
      "bufferView": 3,
      "componentType": 5126,
      "count": 46,
      "max": [
        0.9987118244171143,
        0.050676941871643066,
        0.9975433349609375,
        1.0
      ],
      "min": [
        -0.050676945596933365,
        -0.050676941871643066,
        -0.9987118244171143,
        -1.0
      ],
      "type": "VEC4"
    },
    {
      "bufferView": 1,
      "componentType": 5126,
      "count": 46,
      "max": [
        0.9808019399642944,
        0.968788743019104
      ],
      "min": [
        0.019197940826416016,
        0.031211376190185547
      ],
      "type": "VEC2"
    },
    {
      "bufferView": 0,
      "componentType": 5125,
      "count": 132,
      "type": "SCALAR"
    },
    {
      "bufferView": 2,
      "byteOffset": 1104,
      "componentType": 5126,
      "count": 205,
      "max": [
        -97.59684753417969,
        55.8187255859375,
        23.414886474609375
      ],
      "min": [
        -111.58000183105469,
        31.295948028564453,
        -13.198577880859375
      ],
      "type": "VEC3"
    },
    {
      "bufferView": 2,
      "byteOffset": 3564,
      "componentType": 5126,
      "count": 205,
      "max": [
        1.0,
        1.0,
        1.0
      ],
      "min": [
        -1.0,
        -1.0,
        -1.0
      ],
      "type": "VEC3"
    },
    {
      "bufferView": 3,
      "byteOffset": 736,
      "componentType": 5126,
      "count": 205,
      "max": [
        1.0,
        9.996719199989457e-06,
        1.0,
        1.0
      ],
      "min": [
        -1.0,
        -8.495297151966952e-06,
        -1.0,
        -1.0
      ],
      "type": "VEC4"
    },
    {
      "bufferView": 1,
      "byteOffset": 368,
      "componentType": 5126,
      "count": 205,
      "max": [
        0.9597649574279785,
        0.8311707973480225
      ],
      "min": [
        0.6649312973022461,
        0.572662889957428
      ],
      "type": "VEC2"
    },
    {
      "bufferView": 0,
      "byteOffset": 528,
      "componentType": 5125,
      "count": 711,
      "type": "SCALAR"
    },
    {
      "bufferView": 2,
      "byteOffset": 6024,
      "componentType": 5126,
      "count": 845,
      "max": [
        -97.59684753417969,
        168.7041015625,
        66.16537475585938
      ],
      "min": [
        -111.58000183105469,
        70.54580688476563,
        -66.16537475585938
      ],
      "type": "VEC3"
    },
    {
      "bufferView": 2,
      "byteOffset": 16164,
      "componentType": 5126,
      "count": 845,
      "max": [
        1.0,
        1.0,
        1.0
      ],
      "min": [
        -1.0,
        -1.0,
        -1.0
      ],
      "type": "VEC3"
    },
    {
      "bufferView": 3,
      "byteOffset": 4016,
      "componentType": 5126,
      "count": 845,
      "max": [
        1.0,
        0.6272896528244019,
        1.0,
        1.0
      ],
      "min": [
        -1.0,
        -0.6270689368247986,
        -1.0,
        -1.0
      ],
      "type": "VEC4"
    },
    {
      "bufferView": 1,
      "byteOffset": 2008,
      "componentType": 5126,
      "count": 845,
      "max": [
        0.9597650766372681,
        0.932165265083313
      ],
      "min": [
        0.521036684513092,
        0.5728358030319214
      ],
      "type": "VEC2"
    },
    {
      "bufferView": 0,
      "byteOffset": 3372,
      "componentType": 5125,
      "count": 2925,
      "type": "SCALAR"
    },
    {
      "bufferView": 2,
      "byteOffset": 26304,
      "componentType": 5126,
      "count": 865,
      "max": [
        65.26390075683594,
        168.7041015625,
        110.67853546142578
      ],
      "min": [
        -67.06684875488281,
        70.54580688476563,
        96.69537353515625
      ],
      "type": "VEC3"
    },
    {
      "bufferView": 2,
      "byteOffset": 36684,
      "componentType": 5126,
      "count": 865,
      "max": [
        1.0,
        1.0,
        1.0
      ],
      "min": [
        -1.0,
        -1.0,
        -1.0
      ],
      "type": "VEC3"
    },
    {
      "bufferView": 3,
      "byteOffset": 17536,
      "componentType": 5126,
      "count": 865,
      "max": [
        1.0,
        1.0,
        1.0,
        1.0
      ],
      "min": [
        -3.2241227017948404e-05,
        -1.0,
        -1.0,
        -1.0
      ],
      "type": "VEC4"
    },
    {
      "bufferView": 1,
      "byteOffset": 8768,
      "componentType": 5126,
      "count": 865,
      "max": [
        0.9597650766372681,
        0.932165265083313
      ],
      "min": [
        0.521036684513092,
        0.5728358030319214
      ],
      "type": "VEC2"
    },
    {
      "bufferView": 0,
      "byteOffset": 15072,
      "componentType": 5125,
      "count": 2985,
      "type": "SCALAR"
    },
    {
      "bufferView": 2,
      "byteOffset": 47064,
      "componentType": 5126,
      "count": 215,
      "max": [
        22.513412475585938,
        55.8187255859375,
        110.67852783203125
      ],
      "min": [
        -14.100051879882813,
        31.295948028564453,
        96.69537353515625
      ],
      "type": "VEC3"
    },
    {
      "bufferView": 2,
      "byteOffset": 49644,
      "componentType": 5126,
      "count": 215,
      "max": [
        1.0,
        1.0,
        1.0
      ],
      "min": [
        -1.0,
        -1.0,
        -1.0
      ],
      "type": "VEC3"
    },
    {
      "bufferView": 3,
      "byteOffset": 31376,
      "componentType": 5126,
      "count": 215,
      "max": [
        1.0,
        1.0,
        1.0,
        1.0
      ],
      "min": [
        -1.925427386595402e-05,
        -1.0,
        -1.0,
        -1.0
      ],
      "type": "VEC4"
    },
    {
      "bufferView": 1,
      "byteOffset": 15688,
      "componentType": 5126,
      "count": 215,
      "max": [
        0.9597649574279785,
        0.8311707973480225
      ],
      "min": [
        0.6649312973022461,
        0.572662889957428
      ],
      "type": "VEC2"
    },
    {
      "bufferView": 0,
      "byteOffset": 27012,
      "componentType": 5125,
      "count": 741,
      "type": "SCALAR"
    },
    {
      "bufferView": 2,
      "byteOffset": 52224,
      "componentType": 5126,
      "count": 868,
      "max": [
        109.77705383300781,
        168.7041015625,
        66.16537475585938
      ],
      "min": [
        95.79389953613281,
        70.54580688476563,
        -66.16537475585938
      ],
      "type": "VEC3"
    },
    {
      "bufferView": 2,
      "byteOffset": 62640,
      "componentType": 5126,
      "count": 868,
      "max": [
        1.0,
        1.0,
        1.0
      ],
      "min": [
        -1.0,
        -1.0,
        -1.0
      ],
      "type": "VEC3"
    },
    {
      "bufferView": 3,
      "byteOffset": 34816,
      "componentType": 5126,
      "count": 868,
      "max": [
        1.0,
        0.6270408034324646,
        1.0,
        1.0
      ],
      "min": [
        -1.0,
        -0.6272634267807007,
        -1.0,
        -1.0
      ],
      "type": "VEC4"
    },
    {
      "bufferView": 1,
      "byteOffset": 17408,
      "componentType": 5126,
      "count": 868,
      "max": [
        0.9597650766372681,
        0.932165265083313
      ],
      "min": [
        0.521036684513092,
        0.5728358030319214
      ],
      "type": "VEC2"
    },
    {
      "bufferView": 0,
      "byteOffset": 29976,
      "componentType": 5125,
      "count": 2994,
      "type": "SCALAR"
    },
    {
      "bufferView": 2,
      "byteOffset": 73056,
      "componentType": 5126,
      "count": 215,
      "max": [
        109.77705383300781,
        55.8187255859375,
        13.198577880859375
      ],
      "min": [
        95.79389953613281,
        31.295948028564453,
        -23.414886474609375
      ],
      "type": "VEC3"
    },
    {
      "bufferView": 2,
      "byteOffset": 75636,
      "componentType": 5126,
      "count": 215,
      "max": [
        1.0,
        1.0,
        1.0
      ],
      "min": [
        -1.0,
        -1.0,
        -1.0
      ],
      "type": "VEC3"
    },
    {
      "bufferView": 3,
      "byteOffset": 48704,
      "componentType": 5126,
      "count": 215,
      "max": [
        1.0,
        9.996719199989457e-06,
        1.0,
        1.0
      ],
      "min": [
        -1.0,
        -2.259210123156663e-05,
        -1.0,
        -1.0
      ],
      "type": "VEC4"
    },
    {
      "bufferView": 1,
      "byteOffset": 24352,
      "componentType": 5126,
      "count": 215,
      "max": [
        0.9597649574279785,
        0.8311707973480225
      ],
      "min": [
        0.6649312973022461,
        0.572662889957428
      ],
      "type": "VEC2"
    },
    {
      "bufferView": 0,
      "byteOffset": 41952,
      "componentType": 5125,
      "count": 741,
      "type": "SCALAR"
    },
    {
      "bufferView": 2,
      "byteOffset": 78216,
      "componentType": 5126,
      "count": 840,
      "max": [
        65.26390075683594,
        168.7041015625,
        -96.69537353515625
      ],
      "min": [
        -67.06684875488281,
        70.54580688476563,
        -110.67852783203125
      ],
      "type": "VEC3"
    },
    {
      "bufferView": 2,
      "byteOffset": 88296,
      "componentType": 5126,
      "count": 840,
      "max": [
        1.0,
        1.0,
        1.0
      ],
      "min": [
        -1.0,
        -1.0,
        -1.0
      ],
      "type": "VEC3"
    },
    {
      "bufferView": 3,
      "byteOffset": 52144,
      "componentType": 5126,
      "count": 840,
      "max": [
        2.2515248474519467e-06,
        1.0,
        1.0,
        1.0
      ],
      "min": [
        -1.0,
        -1.0,
        -1.0,
        -1.0
      ],
      "type": "VEC4"
    },
    {
      "bufferView": 1,
      "byteOffset": 26072,
      "componentType": 5126,
      "count": 840,
      "max": [
        0.9597650766372681,
        0.932165265083313
      ],
      "min": [
        0.521036684513092,
        0.5728358030319214
      ],
      "type": "VEC2"
    },
    {
      "bufferView": 0,
      "byteOffset": 44916,
      "componentType": 5125,
      "count": 2910,
      "type": "SCALAR"
    },
    {
      "bufferView": 2,
      "byteOffset": 98376,
      "componentType": 5126,
      "count": 205,
      "max": [
        12.297103881835938,
        55.8187255859375,
        -96.69537353515625
      ],
      "min": [
        -24.316360473632813,
        31.295948028564453,
        -110.67852783203125
      ],
      "type": "VEC3"
    },
    {
      "bufferView": 2,
      "byteOffset": 100836,
      "componentType": 5126,
      "count": 205,
      "max": [
        1.0,
        1.0,
        1.0
      ],
      "min": [
        -1.0,
        -1.0,
        -1.0
      ],
      "type": "VEC3"
    },
    {
      "bufferView": 3,
      "byteOffset": 65584,
      "componentType": 5126,
      "count": 205,
      "max": [
        0.0,
        1.0,
        1.0,
        1.0
      ],
      "min": [
        -1.0,
        -1.0,
        -1.0,
        -1.0
      ],
      "type": "VEC4"
    },
    {
      "bufferView": 1,
      "byteOffset": 32792,
      "componentType": 5126,
      "count": 205,
      "max": [
        0.9597649574279785,
        0.8311707973480225
      ],
      "min": [
        0.6649312973022461,
        0.572662889957428
      ],
      "type": "VEC2"
    },
    {
      "bufferView": 0,
      "byteOffset": 56556,
      "componentType": 5125,
      "count": 711,
      "type": "SCALAR"
    }
  ],
  "asset": {
    "extras": {
      "author": "nickheitzman (https://sketchfab.com/nickheitzman)",
      "license": "CC-BY-4.0 (http://creativecommons.org/licenses/by/4.0/)",
      "source": "https://sketchfab.com/3d-models/question-box-bbf45f32a35b471cac14043f5da484e8",
      "title": "Question Box"
    },
    "generator": "Sketchfab-12.63.0",
    "version": "2.0"
  },
  "bufferViews": [
    {
      "buffer": 0,
      "byteLength": 59400,
      "name": "floatBufferViews",
      "target": 34963
    },
    {
      "buffer": 0,
      "byteLength": 34432,
      "byteOffset": 59400,
      "byteStride": 8,
      "name": "floatBufferViews",
      "target": 34962
    },
    {
      "buffer": 0,
      "byteLength": 103296,
      "byteOffset": 93832,
      "byteStride": 12,
      "name": "floatBufferViews",
      "target": 34962
    },
    {
      "buffer": 0,
      "byteLength": 68864,
      "byteOffset": 197128,
      "byteStride": 16,
      "name": "floatBufferViews",
      "target": 34962
    }
  ],
  "buffers": [
    {
      "byteLength": 265992,
      "uri": "scene.bin"
    }
  ],
  "extensionsUsed": [
    "KHR_materials_clearcoat"
  ],
  "images": [
    {
      "uri": "textures/lambert2_baseColor.png"
    },
    {
      "uri": "textures/lambert2_normal.png"
    },
    {
      "uri": "textures/lambert2_clearcoat_roughness.png"
    }
  ],
  "materials": [
    {
      "doubleSided": true,
      "extensions": {
        "KHR_materials_clearcoat": {
          "clearcoatFactor": 1.0,
          "clearcoatNormalTexture": {
            "index": 1
          },
          "clearcoatRoughnessFactor": 1.0,
          "clearcoatRoughnessTexture": {
            "index": 2
          }
        }
      },
      "name": "lambert2",
      "normalTexture": {
        "index": 1
      },
      "pbrMetallicRoughness": {
        "baseColorTexture": {
          "index": 0
        },
        "roughnessFactor": 0.5715392604
      }
    }
  ],
  "meshes": [
    {
      "name": "Cube_lambert2_0",
      "primitives": [
        {
          "attributes": {
            "NORMAL": 1,
            "POSITION": 0,
            "TANGENT": 2,
            "TEXCOORD_0": 3
          },
          "indices": 4,
          "material": 0,
          "mode": 4
        }
      ]
    },
    {
      "name": "Question_Bottom_lambert2_0",
      "primitives": [
        {
          "attributes": {
            "NORMAL": 6,
            "POSITION": 5,
            "TANGENT": 7,
            "TEXCOORD_0": 8
          },
          "indices": 9,
          "material": 0,
          "mode": 4
        }
      ]
    },
    {
      "name": "Question_Top_lambert2_0",
      "primitives": [
        {
          "attributes": {
            "NORMAL": 11,
            "POSITION": 10,
            "TANGENT": 12,
            "TEXCOORD_0": 13
          },
          "indices": 14,
          "material": 0,
          "mode": 4
        }
      ]
    },
    {
      "name": "Question_Top1_lambert2_0",
      "primitives": [
        {
          "attributes": {
            "NORMAL": 16,
            "POSITION": 15,
            "TANGENT": 17,
            "TEXCOORD_0": 18
          },
          "indices": 19,
          "material": 0,
          "mode": 4
        }
      ]
    },
    {
      "name": "Question_Bottom1_lambert2_0",
      "primitives": [
        {
          "attributes": {
            "NORMAL": 21,
            "POSITION": 20,
            "TANGENT": 22,
            "TEXCOORD_0": 23
          },
          "indices": 24,
          "material": 0,
          "mode": 4
        }
      ]
    },
    {
      "name": "Question_Top2_lambert2_0",
      "primitives": [
        {
          "attributes": {
            "NORMAL": 26,
            "POSITION": 25,
            "TANGENT": 27,
            "TEXCOORD_0": 28
          },
          "indices": 29,
          "material": 0,
          "mode": 4
        }
      ]
    },
    {
      "name": "Question_Bottom2_lambert2_0",
      "primitives": [
        {
          "attributes": {
            "NORMAL": 31,
            "POSITION": 30,
            "TANGENT": 32,
            "TEXCOORD_0": 33
          },
          "indices": 34,
          "material": 0,
          "mode": 4
        }
      ]
    },
    {
      "name": "Question_Top3_lambert2_0",
      "primitives": [
        {
          "attributes": {
            "NORMAL": 36,
            "POSITION": 35,
            "TANGENT": 37,
            "TEXCOORD_0": 38
          },
          "indices": 39,
          "material": 0,
          "mode": 4
        }
      ]
    },
    {
      "name": "Question_Bottom3_lambert2_0",
      "primitives": [
        {
          "attributes": {
            "NORMAL": 41,
            "POSITION": 40,
            "TANGENT": 42,
            "TEXCOORD_0": 43
          },
          "indices": 44,
          "material": 0,
          "mode": 4
        }
      ]
    }
  ],
  "nodes": [
    {
      "children": [
        1
      ],
      "matrix": [
        1.0,
        0.0,
        0.0,
        0.0,
        0.0,
        2.220446049250313e-16,
        -1.0,
        0.0,
        0.0,
        1.0,
        2.220446049250313e-16,
        0.0,
        0.0,
        0.0,
        0.0,
        1.0
      ],
      "name": "Sketchfab_model"
    },
    {
      "children": [
        2
      ],
      "matrix": [
        1.0,
        0.0,
        0.0,
        0.0,
        0.0,
        0.0,
        1.0,
        0.0,
        0.0,
        -1.0,
        0.0,
        0.0,
        0.0,
        0.0,
        0.0,
        1.0
      ],
      "name": "e79e074b5b1644a1973bff7d55ee6c20.fbx"
    },
    {
      "children": [
        3,
        5,
        7,
        9,
        11,
        13,
        15,
        17,
        19
      ],
      "name": "RootNode"
    },
    {
      "children": [
        4
      ],
      "name": "Cube"
    },
    {
      "mesh": 0,
      "name": "Cube_lambert2_0"
    },
    {
      "children": [
        6
      ],
      "name": "Question_Bottom"
    },
    {
      "mesh": 1,
      "name": "Question_Bottom_lambert2_0"
    },
    {
      "children": [
        8
      ],
      "name": "Question_Top"
    },
    {
      "mesh": 2,
      "name": "Question_Top_lambert2_0"
    },
    {
      "children": [
        10
      ],
      "name": "Question_Top1"
    },
    {
      "mesh": 3,
      "name": "Question_Top1_lambert2_0"
    },
    {
      "children": [
        12
      ],
      "name": "Question_Bottom1"
    },
    {
      "mesh": 4,
      "name": "Question_Bottom1_lambert2_0"
    },
    {
      "children": [
        14
      ],
      "name": "Question_Top2"
    },
    {
      "mesh": 5,
      "name": "Question_Top2_lambert2_0"
    },
    {
      "children": [
        16
      ],
      "name": "Question_Bottom2"
    },
    {
      "mesh": 6,
      "name": "Question_Bottom2_lambert2_0"
    },
    {
      "children": [
        18
      ],
      "name": "Question_Top3"
    },
    {
      "mesh": 7,
      "name": "Question_Top3_lambert2_0"
    },
    {
      "children": [
        20
      ],
      "name": "Question_Bottom3"
    },
    {
      "mesh": 8,
      "name": "Question_Bottom3_lambert2_0"
    }
  ],
  "samplers": [
    {
      "magFilter": 9729,
      "minFilter": 9987,
      "wrapS": 10497,
      "wrapT": 10497
    }
  ],
  "scene": 0,
  "scenes": [
    {
      "name": "Sketchfab_Scene",
      "nodes": [
        0
      ]
    }
  ],
  "textures": [
    {
      "sampler": 0,
      "source": 0
    },
    {
      "sampler": 0,
      "source": 1
    },
    {
      "sampler": 0,
      "source": 2
    }
  ]
}
